:FULLY-SPECIFIED
:FORCE-ALL-JOINTS-BE-3DOF
:DEGREES
679
root 5.37335 16.6046 1.04601 20.4757 -23.2831 -3.30857
lfemur -33.9993 26.2245 -9.63667
ltibia 96.1609 0 0
lfoot 7.72702 -4.75373 0
ltoes 6.84515 0 0
rfemur -35.3248 -12.3649 25.8632
rtibia 50.0716 0 0
rfoot -17.2543 -4.70448 0
rtoes 1.04734 0 0
lowerback -0.119489 -6.27356 -0.664194
upperback -2.01164 -8.42133 0.293654
thorax -1.83385 -4.20192 0.761255
lowerneck -9.30914 -4.17674 0.409812
upperneck 2.23267 -5.78362 2.93657
head 2.38571 -2.79166 0.586259
lclavicle 8.42544e-15 9.35379e-16 0
lhumerus 7.80093 -60.3632 63.9291
lradius 87.0011 0 0
lwrist 28.842 0 0
lhand -14.7343 -2.00933 0
lfingers 7.12502 0 0
lthumb 11.4201 27.6344 0
rclavicle 8.42544e-15 9.35379e-16 0
rhumerus -48.9886 -12.5487 -40.1566
rradius 75.0961 0 0
rwrist -18.2379 0 0
rhand -29.1857 -46.8927 0
rfingers 7.12502 0 0
rthumb -2.53065 -796.839 0
680
root 5.3674 16.7227 1.19489 21.4623 -24.8067 -4.42022
lfemur -35.2658 25.8188 -7.05256
ltibia 99.3304 0 0
lfoot 8.12949 -4.73157 0
ltoes 8.49648 0 0
rfemur -32.9543 -11.4466 25.0783
rtibia 46.1121 0 0
rfoot -15.5707 -3.9395 0
rtoes 0.726217 0 0
lowerback 0.0616329 -6.19021 -0.76088
upperback -2.00169 -8.32185 0.0941988
thorax -1.94053 -4.15136 0.631233
lowerneck -9.09035 -4.17605 0.408257
upperneck 2.40857 -5.79505 3.08523
head 2.41037 -2.79246 0.636853
lclavicle 6.02243e-15 2.63573e-15 0
lhumerus 10.1344 -58.0664 59.975
lradius 87.0321 0 0
lwrist 29.0157 0 0
lhand -15.27 -2.37208 0
lfingers 7.12502 0 0
lthumb 10.9033 27.2957 0
rclavicle 6.02243e-15 2.63573e-15 0
rhumerus -48.445 -12.4006 -38.1536
rradius 77.0145 0 0
rwrist -17.7571 0 0
rhand -29.5982 -46.5724 0
rfingers 7.12502 0 0
rthumb -2.92904 -796.511 0
681
root 5.36145 16.8409 1.34376 22.4414 -26.3589 -5.52823
lfemur -36.5563 25.3784 -4.38262
ltibia 102.513 0 0
lfoot 8.45464 -4.67318 0
ltoes 10.2615 0 0
rfemur -30.5304 -10.5202 24.2706
rtibia 42.0185 0 0
rfoot -13.7772 -3.14162 0
rtoes 0.406699 0 0
lowerback 0.252113 -6.0964 -0.873649
upperback -1.99064 -8.20897 -0.116716
thorax -2.05139 -4.09393 0.499183
lowerneck -8.86135 -4.1827 0.403666
upperneck 2.59386 -5.81723 3.25104
head 2.43758 -2.798 0.693004
lclavicle 3.408e-15 4.40639e-15 0
lhumerus 12.4626 -55.6723 55.9557
lradius 87.0223 0 0
lwrist 29.1875 0 0
lhand -15.8122 -2.73998 0
lfingers 7.12502 0 0
lthumb 10.3802 26.9515 0
rclavicle 3.408e-15 4.40639e-15 0
rhumerus -47.8487 -12.2274 -36.1305
rradius 78.9989 0 0
rwrist -17.2469 0 0
rhand -30.0298 -46.2358 0
rfingers 7.12502 0 0
rthumb -3.34583 -796.167 0
682
root 5.35549 16.9591 1.49264 23.3654 -27.9375 -6.58373
lfemur -37.8556 24.9022 -1.65866
ltibia 105.67 0 0
lfoot 8.71084 -4.58555 0
ltoes 12.1136 0 0
rfemur -28.082 -9.59236 23.4435
rtibia 37.8585 0 0
rfoot -11.8961 -2.3267 0
rtoes 0.101722 0 0
lowerback 0.450396 -5.99309 -0.999416
upperback -1.97857 -8.08383 -0.335998
thorax -2.16555 -4.03023 0.366255
lowerneck -8.62508 -4.19614 0.395824
upperneck 2.78485 -5.84907 3.43049
head 2.4665 -2.80789 0.753664
lclavicle 6.37491e-16 6.22896e-15 0
lhumerus 14.7633 -53.2067 51.9048
lradius 86.9671 0 0
lwrist 29.3544 0 0
lhand -16.3569 -3.10934 0
lfingers 7.12502 0 0
lthumb 9.85468 26.6053 0
rclavicle 6.37491e-16 6.22896e-15 0
rhumerus -47.2032 -12.0317 -34.105
rradius 81.028 0 0
rwrist -16.7141 0 0
rhand -30.4733 -45.8852 0
rfingers 7.12502 0 0
rthumb -3.77399 -795.808 0
683
root 5.34954 17.0772 1.64152 24.1872 -29.5402 -7.53786
lfemur -39.1488 24.3893 1.08751
ltibia 108.765 0 0
lfoot 8.90646 -4.47567 0
ltoes 14.026 0 0
rfemur -25.6382 -8.66998 22.601
rtibia 33.6996 0 0
rfoot -9.95004 -1.51058 0
rtoes -0.175778 0 0
lowerback 0.654929 -5.88124 -1.1351
upperback -1.96557 -7.94753 -0.560552
thorax -2.28213 -3.96084 0.233603
lowerneck -8.38446 -4.21578 0.384515
upperneck 2.97786 -5.88949 3.62008
head 2.49624 -2.82174 0.817782
lclavicle -2.2338e-15 8.08501e-15 0
lhumerus 17.0143 -50.6951 47.8558
lradius 86.8622 0 0
lwrist 29.5137 0 0
lhand -16.9002 -3.47646 0
lfingers 7.12502 0 0
lthumb 9.3304 26.2608 0
rclavicle -2.2338e-15 8.08501e-15 0
rhumerus -46.5122 -11.8162 -32.0951
rradius 83.0804 0 0
rwrist -16.1654 0 0
rhand -30.9212 -45.5226 0
rfingers 7.12502 0 0
rthumb -4.20651 -795.437 0
684
root 5.34358 17.1954 1.79039 24.8594 -31.1649 -8.34173
lfemur -40.4206 23.8386 3.82407
ltibia 111.76 0 0
lfoot 9.04988 -4.35052 0
ltoes 15.9721 0 0
rfemur -23.2279 -7.75976 21.7465
rtibia 29.6094 0 0
rfoot -7.96156 -0.709099 0
rtoes -0.412863 0 0
lowerback 0.864156 -5.76181 -1.27761
upperback -1.95173 -7.80121 -0.787285
thorax -2.40024 -3.88636 0.102377
lowerneck -8.14243 -4.24104 0.369522
upperneck 3.16923 -5.93738 3.81631
head 2.52595 -2.83916 0.88431
lclavicle -5.15055e-15 9.95613e-15 0
lhumerus 19.1932 -48.1631 43.8425
lradius 86.7033 0 0
lwrist 29.6626 0 0
lhand -17.4382 -3.83767 0
lfingers 7.12502 0 0
lthumb 8.81121 25.9216 0
rclavicle -5.15055e-15 9.95613e-15 0
rhumerus -45.7792 -11.5832 -30.1184
rradius 85.1347 0 0
rwrist -15.6076 0 0
rhand -31.3663 -45.1503 0
rfingers 7.12502 0 0
rthumb -4.63635 -795.057 0
685
root 5.33763 17.3135 1.93927 25.3347 -32.8093 -8.94649
lfemur -41.656 23.2489 6.51921
ltibia 114.616 0 0
lfoot 9.14946 -4.21708 0
ltoes 17.9253 0 0
rfemur -20.8802 -6.86846 20.8838
rtibia 25.6555 0 0
rfoot -5.95316 0.0618923 0
rtoes -0.596596 0 0
lowerback 1.07652 -5.63573 -1.42386
upperback -1.93715 -7.646 -1.0131
thorax -2.51901 -3.80738 -0.0262721
lowerneck -7.90192 -4.27135 0.350631
upperneck 3.35526 -5.99168 4.01568
head 2.55475 -2.85975 0.952197
lclavicle -8.05745e-15 1.18239e-14 0
lhumerus 21.2779 -45.6364 39.8983
lradius 86.486 0 0
lwrist 29.7984 0 0
lhand -17.9671 -4.18926 0
lfingers 7.12502 0 0
lthumb 8.30087 25.5914 0
rclavicle -8.05745e-15 1.18239e-14 0
rhumerus -45.008 -11.3355 -28.1928
rradius 87.1697 0 0
rwrist -15.0475 0 0
rhand -31.8014 -44.7704 0
rfingers 7.12502 0 0
rthumb -5.05649 -794.669 0
